<svg xmlns="http://www.w3.org/2000/svg" viewBox="0 0 64 64" fill="none">
  <circle cx="32" cy="32" r="30" fill="#0D1117"/>
  <circle cx="32" cy="32" r="22" stroke="#00D4AA" stroke-width="2" fill="none"/>
  <circle cx="32" cy="32" r="14" stroke="#00D4AA" stroke-width="2" fill="none"/>
  <circle cx="32" cy="32" r="6" fill="#00D4AA"/>
  <path d="M32 2 L34 10 L32 8 L30 10 Z" fill="#00D4AA"/>
  <path d="M32 62 L34 54 L32 56 L30 54 Z" fill="#00D4AA"/>
  <path d="M2 32 L10 34 L8 32 L10 30 Z" fill="#00D4AA"/>
  <path d="M62 32 L54 34 L56 32 L54 30 Z" fill="#00D4AA"/>
  <path d="M8 8 L14 14 L12 14 L14 12 Z" fill="#00D4AA" opacity="0.7"/>
  <path d="M56 8 L50 14 L52 14 L50 12 Z" fill="#00D4AA" opacity="0.7"/>
  <path d="M8 56 L14 50 L12 50 L14 52 Z" fill="#00D4AA" opacity="0.7"/>
  <path d="M56 56 L50 50 L52 50 L50 52 Z" fill="#00D4AA" opacity="0.7"/>
</svg>
